# xmcd CD database file
#
# Track frame offsets:
#	150
#	20235
#	39555
#
# Disc length: 819 seconds
#
# Revision: 0
# Processed by: cddbd v1.5.2PL0 Copyright (c) Steve Scherf et al.
# Submitted via: CDex 1.70beta2
#
DISCID=21033103
DTITLE=ERA - Infanati(Single)
DYEAR=2000
DGENRE=New Age
TTITLE0=Infanati
TTITLE1=Devore Amante
TTITLE2=Infanati No Rhythm
EXTD=YEAR: 2000
EXTT0=
EXTT1=
EXTT2=
PLAYORDER=
